<svg width="254" height="11" viewBox="0 0 254 11" fill="none" xmlns="http://www.w3.org/2000/svg">
<g clip-path="url(#clip0)">
<path d="M9.63958 10.8487C9.45263 10.8487 9.26568 10.7763 9.12255 10.6287L1.46054 2.72375V9.94457C1.46054 10.3605 1.13338 10.698 0.730271 10.698C0.327162 10.698 0 10.3605 0 9.94457V0.903472C0 0.599089 0.178186 0.324842 0.449847 0.207308C0.724429 0.0897737 1.03699 0.156075 1.2473 0.370048L9.63958 9.0284L18.1779 0.219363C18.3853 0.0053901 18.7008 -0.0609113 18.9724 0.056623C19.2441 0.174157 19.4223 0.448404 19.4223 0.752787V9.94457C19.4223 10.3605 19.0951 10.698 18.692 10.698C18.2889 10.698 17.9618 10.3605 17.9618 9.94457V2.57306L10.1566 10.6287C10.0135 10.7763 9.82653 10.8487 9.63958 10.8487Z" fill="#333333"/>
<path d="M42.6479 11.0002H37.0978C34.2001 11.0002 31.8398 8.56814 31.8398 5.57554C31.8398 2.58293 34.2001 0.150879 37.0978 0.150879H42.6479C45.5456 0.150879 47.9058 2.58293 47.9058 5.57554C47.9058 8.56814 45.5456 11.0002 42.6479 11.0002ZM37.0978 1.65773C35.0034 1.65773 33.3004 3.41472 33.3004 5.57554C33.3004 7.73636 35.0034 9.49335 37.0978 9.49335H42.6479C44.7423 9.49335 46.4453 7.73636 46.4453 5.57554C46.4453 3.41472 44.7423 1.65773 42.6479 1.65773H37.0978Z" fill="#333333"/>
<path d="M70.106 11.0002H64.556C61.6583 11.0002 59.298 8.56814 59.298 5.57554C59.298 2.58293 61.6583 0.150879 64.556 0.150879H70.106C73.0038 0.150879 75.364 2.58293 75.364 5.57554C75.364 8.56814 73.0038 11.0002 70.106 11.0002ZM64.556 1.65773C62.4616 1.65773 60.7586 3.41472 60.7586 5.57554C60.7586 7.73636 62.4616 9.49335 64.556 9.49335H70.106C72.2005 9.49335 73.9035 7.73636 73.9035 5.57554C73.9035 3.41472 72.2005 1.65773 70.106 1.65773H64.556Z" fill="#333333"/>
<path d="M102.65 11.0001C102.51 11.0001 102.372 10.9579 102.253 10.8795L89.464 2.2935V10.2466C89.464 10.6625 89.1369 11.0001 88.7338 11.0001C88.3306 11.0001 88.0035 10.6625 88.0035 10.2466V0.904181C88.0035 0.626921 88.1495 0.37377 88.3861 0.241167C88.6227 0.108565 88.909 0.120619 89.131 0.271304L101.92 8.85733V0.904181C101.92 0.488291 102.247 0.150756 102.65 0.150756C103.053 0.150756 103.38 0.488291 103.38 0.904181V10.2466C103.38 10.5239 103.234 10.7771 102.997 10.9097C102.889 10.9699 102.77 11.0001 102.65 11.0001Z" fill="#333333"/>
<path d="M137.925 11.0001C136.044 11.0001 134.279 10.7168 132.956 10.2015C130.797 9.36066 130.342 8.12806 130.342 7.24504C130.342 6.82915 130.669 6.49162 131.072 6.49162C131.475 6.49162 131.802 6.82915 131.802 7.24504C131.802 8.48669 134.548 9.49628 137.922 9.49628C141.296 9.49628 144.042 8.48669 144.042 7.24504C144.042 5.91901 140.694 5.79847 138.007 5.70203C134.414 5.57244 131.017 5.45189 131.017 2.93847C131.017 0.355726 136.561 0.153809 138.258 0.153809C139.958 0.153809 145.499 0.355726 145.499 2.93847C145.499 3.35436 145.172 3.69189 144.769 3.69189C144.366 3.69189 144.039 3.35436 144.039 2.93847C144.039 2.86312 143.773 2.4834 142.543 2.14285C141.439 1.83545 139.876 1.66066 138.255 1.66066C134.44 1.66066 132.474 2.55573 132.474 2.93847C132.474 3.99627 135.699 4.1108 138.053 4.19819C141.714 4.3308 145.496 4.46641 145.496 7.24806C145.508 9.83984 141.699 11.0001 137.925 11.0001Z" fill="#333333"/>
<path d="M158.121 11.0002C157.718 11.0002 157.391 10.6627 157.391 10.2468V0.904304C157.391 0.488413 157.718 0.150879 158.121 0.150879C158.524 0.150879 158.852 0.488413 158.852 0.904304V10.2468C158.852 10.6627 158.524 11.0002 158.121 11.0002Z" fill="#333333"/>
<path d="M171.847 11.0002C171.444 11.0002 171.117 10.6627 171.117 10.2468V0.904304C171.117 0.488413 171.444 0.150879 171.847 0.150879C172.251 0.150879 172.578 0.488413 172.578 0.904304V10.2468C172.578 10.6627 172.251 11.0002 171.847 11.0002Z" fill="#333333"/>
<path d="M171.847 6.03322H161.428C161.025 6.03322 160.698 5.69568 160.698 5.27979C160.698 4.8639 161.025 4.52637 161.428 4.52637H171.847C172.251 4.52637 172.578 4.8639 172.578 5.27979C172.578 5.69568 172.251 6.03322 171.847 6.03322Z" fill="#333333"/>
<path d="M184.478 11.0002C184.312 11.0002 184.142 10.9399 184.005 10.8194C183.698 10.5481 183.66 10.075 183.923 9.75855L191.629 0.416084C191.766 0.247317 191.968 0.150879 192.181 0.150879H192.184C192.394 0.150879 192.596 0.244304 192.736 0.410057L200.585 9.75252C200.848 10.0659 200.816 10.5421 200.512 10.8164C200.208 11.0876 199.747 11.0544 199.481 10.741L192.187 2.06156L185.03 10.735C184.89 10.9098 184.686 11.0002 184.478 11.0002Z" fill="#333333"/>
<path d="M212.31 11.0002C211.907 11.0002 211.58 10.6626 211.58 10.2467V3.4629C211.58 3.04701 211.907 2.70947 212.31 2.70947C212.713 2.70947 213.041 3.04701 213.041 3.4629V10.2467C213.041 10.6626 212.713 11.0002 212.31 11.0002Z" fill="#333333"/>
<path d="M221.255 6.32896H212.31C211.907 6.32896 211.58 5.99143 211.58 5.57554C211.58 5.15965 211.907 4.82211 212.31 4.82211H221.255C223.18 4.82211 224.187 4.02649 224.187 3.23992C224.187 2.45334 223.18 1.65773 221.255 1.65773H212.31C211.907 1.65773 211.58 1.32019 211.58 0.904304C211.58 0.488413 211.907 0.150879 212.31 0.150879H221.255C224.272 0.150879 225.648 1.75115 225.648 3.23992C225.648 4.72869 224.272 6.32896 221.255 6.32896Z" fill="#333333"/>
<path d="M225.844 11.0001C225.677 11.0001 225.514 10.9429 225.376 10.8253L219.952 6.15412C219.642 5.88891 219.601 5.41275 219.858 5.09329C220.115 4.77384 220.577 4.73165 220.887 4.99686L226.311 9.66809C226.621 9.9333 226.662 10.4095 226.405 10.7289C226.261 10.9067 226.054 11.0001 225.844 11.0001Z" fill="#333333"/>
<path d="M248.324 11.0002H239.523C239.12 11.0002 238.793 10.6627 238.793 10.2468V3.78239C238.793 3.3665 239.12 3.02896 239.523 3.02896C239.926 3.02896 240.253 3.3665 240.253 3.78239V9.49335H248.324C250.354 9.49335 252.542 8.26677 252.542 5.57554C252.542 2.8843 250.357 1.65773 248.324 1.65773H239.523C239.12 1.65773 238.793 1.32019 238.793 0.904304C238.793 0.488413 239.12 0.150879 239.523 0.150879H248.324C252.052 0.150879 254.003 2.88129 254.003 5.57554C254.003 8.26978 252.052 11.0002 248.324 11.0002Z" fill="#333333"/>
</g>
<defs>
<clipPath id="clip0">
<rect width="254" height="11" fill="white"/>
</clipPath>
</defs>
</svg>
