<svg width="24" height="24" viewBox="0 0 24 24" fill="none" xmlns="http://www.w3.org/2000/svg">
<path d="M14.828 7.75701L9.17204 13.414C9.07653 13.5063 9.00035 13.6166 8.94794 13.7386C8.89553 13.8606 8.86795 13.9918 8.86679 14.1246C8.86564 14.2574 8.89094 14.3891 8.94122 14.512C8.9915 14.6349 9.06576 14.7465 9.15965 14.8404C9.25354 14.9343 9.36519 15.0086 9.48809 15.0588C9.61098 15.1091 9.74267 15.1344 9.87544 15.1333C10.0082 15.1321 10.1394 15.1045 10.2614 15.0521C10.3835 14.9997 10.4938 14.9235 10.586 14.828L16.243 9.17201C16.8057 8.60935 17.1218 7.84623 17.1218 7.05051C17.1218 6.25479 16.8057 5.49167 16.243 4.92901C15.6804 4.36635 14.9173 4.05026 14.1215 4.05026C13.3258 4.05026 12.5627 4.36635 12 4.92901L6.34304 10.586C5.86912 11.0481 5.49167 11.5998 5.2326 12.2089C4.97353 12.818 4.83799 13.4726 4.83384 14.1345C4.82969 14.7964 4.95702 15.4526 5.20844 16.0649C5.45986 16.6773 5.83036 17.2336 6.29846 17.7016C6.76655 18.1696 7.32293 18.5401 7.9353 18.7914C8.54767 19.0427 9.20385 19.17 9.86578 19.1657C10.5277 19.1615 11.1822 19.0258 11.7913 18.7667C12.4004 18.5075 12.952 18.13 13.414 17.656L19.071 12L20.485 13.414L14.828 19.071C14.178 19.7211 13.4063 20.2367 12.557 20.5885C11.7076 20.9403 10.7973 21.1214 9.87804 21.1214C8.95874 21.1214 8.04844 20.9403 7.19912 20.5885C6.3498 20.2367 5.57809 19.7211 4.92804 19.071C4.278 18.421 3.76236 17.6493 3.41056 16.7999C3.05875 15.9506 2.87769 15.0403 2.87769 14.121C2.87769 13.2017 3.05875 12.2914 3.41056 11.4421C3.76236 10.5928 4.278 9.82105 4.92804 9.17101L10.586 3.51501C11.5291 2.60422 12.7921 2.10025 14.103 2.11164C15.414 2.12303 16.6681 2.64888 17.5951 3.57592C18.5222 4.50296 19.048 5.75702 19.0594 7.068C19.0708 8.37899 18.5668 9.642 17.656 10.585L12 16.244C11.7214 16.5226 11.3906 16.7436 11.0265 16.8943C10.6624 17.0451 10.2722 17.1227 9.87819 17.1226C9.48414 17.1226 9.09397 17.0449 8.72993 16.8941C8.3659 16.7432 8.03514 16.5222 7.75654 16.2435C7.47794 15.9648 7.25696 15.634 7.10621 15.27C6.95546 14.9059 6.87789 14.5157 6.87794 14.1217C6.87798 13.7276 6.95564 13.3374 7.10648 12.9734C7.25732 12.6094 7.47838 12.2786 7.75704 12L13.414 6.34301L14.828 7.75701Z" fill="#007AFF"/>
</svg>
