<svg width="24" height="24" viewBox="0 0 24 24" fill="none" xmlns="http://www.w3.org/2000/svg">
<path d="M16.757 3.0001L9.291 10.4661L9.299 14.7131L13.537 14.7061L21 7.2431V20.0001C21 20.2653 20.8946 20.5197 20.7071 20.7072C20.5196 20.8947 20.2652 21.0001 20 21.0001H4C3.73478 21.0001 3.48043 20.8947 3.29289 20.7072C3.10536 20.5197 3 20.2653 3 20.0001V4.0001C3 3.73488 3.10536 3.48053 3.29289 3.29299C3.48043 3.10545 3.73478 3.0001 4 3.0001H16.757ZM20.485 2.1001L21.9 3.5161L12.708 12.7081L11.296 12.7111L11.294 11.2941L20.485 2.1001Z" fill="#007AFF"/>
</svg>
