<svg width="48" height="48" viewBox="0 0 48 48" fill="none" xmlns="http://www.w3.org/2000/svg">
<circle cx="24" cy="24" r="24" fill="#EBEBEB"/>
<path d="M24 14C26.717 14 27.056 14.01 28.122 14.06C29.187 14.11 29.912 14.277 30.55 14.525C31.21 14.779 31.766 15.123 32.322 15.678C32.8305 16.1779 33.224 16.7826 33.475 17.45C33.722 18.087 33.89 18.813 33.94 19.878C33.987 20.944 34 21.283 34 24C34 26.717 33.99 27.056 33.94 28.122C33.89 29.187 33.722 29.912 33.475 30.55C33.2247 31.2178 32.8311 31.8226 32.322 32.322C31.822 32.8303 31.2173 33.2238 30.55 33.475C29.913 33.722 29.187 33.89 28.122 33.94C27.056 33.987 26.717 34 24 34C21.283 34 20.944 33.99 19.878 33.94C18.813 33.89 18.088 33.722 17.45 33.475C16.7823 33.2245 16.1775 32.8309 15.678 32.322C15.1694 31.8222 14.7759 31.2175 14.525 30.55C14.277 29.913 14.11 29.187 14.06 28.122C14.013 27.056 14 26.717 14 24C14 21.283 14.01 20.944 14.06 19.878C14.11 18.812 14.277 18.088 14.525 17.45C14.7752 16.7822 15.1688 16.1773 15.678 15.678C16.1777 15.1692 16.7824 14.7757 17.45 14.525C18.088 14.277 18.812 14.11 19.878 14.06C20.944 14.013 21.283 14 24 14ZM24 19C22.6739 19 21.4021 19.5268 20.4645 20.4645C19.5268 21.4021 19 22.6739 19 24C19 25.3261 19.5268 26.5979 20.4645 27.5355C21.4021 28.4732 22.6739 29 24 29C25.3261 29 26.5979 28.4732 27.5355 27.5355C28.4732 26.5979 29 25.3261 29 24C29 22.6739 28.4732 21.4021 27.5355 20.4645C26.5979 19.5268 25.3261 19 24 19ZM30.5 18.75C30.5 18.4185 30.3683 18.1005 30.1339 17.8661C29.8995 17.6317 29.5815 17.5 29.25 17.5C28.9185 17.5 28.6005 17.6317 28.3661 17.8661C28.1317 18.1005 28 18.4185 28 18.75C28 19.0815 28.1317 19.3995 28.3661 19.6339C28.6005 19.8683 28.9185 20 29.25 20C29.5815 20 29.8995 19.8683 30.1339 19.6339C30.3683 19.3995 30.5 19.0815 30.5 18.75ZM24 21C24.7956 21 25.5587 21.3161 26.1213 21.8787C26.6839 22.4413 27 23.2044 27 24C27 24.7956 26.6839 25.5587 26.1213 26.1213C25.5587 26.6839 24.7956 27 24 27C23.2044 27 22.4413 26.6839 21.8787 26.1213C21.3161 25.5587 21 24.7956 21 24C21 23.2044 21.3161 22.4413 21.8787 21.8787C22.4413 21.3161 23.2044 21 24 21Z" fill="#989898"/>
</svg>
