<svg width="16" height="16" viewBox="0 0 16 16" fill="none" xmlns="http://www.w3.org/2000/svg">
<path d="M7.33331 1.3335C10.6453 1.3335 13.3333 4.0215 13.3333 7.3335C13.3333 10.6455 10.6453 13.3335 7.33331 13.3335C4.02131 13.3335 1.33331 10.6455 1.33331 7.3335C1.33331 4.0215 4.02131 1.3335 7.33331 1.3335ZM7.33331 12.0002C9.91131 12.0002 12 9.9115 12 7.3335C12 4.75483 9.91131 2.66683 7.33331 2.66683C4.75465 2.66683 2.66665 4.75483 2.66665 7.3335C2.66665 9.9115 4.75465 12.0002 7.33331 12.0002ZM12.99 12.0475L14.876 13.9328L13.9326 14.8762L12.0473 12.9902L12.99 12.0475Z" fill="#989898"/>
</svg>
