<svg width="24" height="24" viewBox="0 0 24 24" fill="none" xmlns="http://www.w3.org/2000/svg">
<path d="M9.95399 2.20997C11.3029 1.9271 12.6958 1.92642 14.045 2.20797C14.1349 2.80126 14.3573 3.36666 14.6958 3.86215C15.0342 4.35764 15.48 4.77048 16 5.06997C16.5195 5.3705 17.1002 5.55004 17.6987 5.59522C18.2972 5.64041 18.8982 5.55009 19.457 5.33097C20.3753 6.35903 21.0709 7.56601 21.5 8.87597C21.0313 9.25055 20.6531 9.72592 20.3934 10.2668C20.1337 10.8076 19.9993 11.4 20 12C20 13.264 20.586 14.391 21.502 15.124C21.0703 16.4328 20.3739 17.6389 19.456 18.667C18.8973 18.448 18.2965 18.3578 17.6982 18.403C17.0999 18.4481 16.5194 18.6276 16 18.928C15.4804 19.2274 15.035 19.6399 14.6967 20.1351C14.3585 20.6302 14.136 21.1951 14.046 21.788C12.6972 22.0715 11.3043 22.0729 9.95499 21.792C9.86553 21.1982 9.64329 20.6322 9.30481 20.1361C8.96632 19.6401 8.52032 19.2268 7.99999 18.927C7.48035 18.6266 6.89969 18.4472 6.30117 18.4022C5.70266 18.3572 5.1017 18.4477 4.54299 18.667C3.62458 17.6386 2.92899 16.4313 2.49999 15.121C2.96838 14.7466 3.34644 14.2716 3.60612 13.7311C3.8658 13.1906 4.00042 12.5986 3.99999 11.999C4.00048 11.3989 3.86569 10.8063 3.60565 10.2655C3.34561 9.72463 2.96701 9.24935 2.49799 8.87497C2.92965 7.56609 3.6261 6.36007 4.54399 5.33197C5.10264 5.55093 5.70345 5.64117 6.30178 5.59598C6.90011 5.5508 7.48055 5.37135 7.99999 5.07097C8.51953 4.77157 8.96497 4.35899 9.30325 3.86388C9.64152 3.36876 9.86394 2.80381 9.95399 2.21097V2.20997ZM12 15C12.7956 15 13.5587 14.6839 14.1213 14.1213C14.6839 13.5587 15 12.7956 15 12C15 11.2043 14.6839 10.4413 14.1213 9.87865C13.5587 9.31604 12.7956 8.99997 12 8.99997C11.2043 8.99997 10.4413 9.31604 9.87866 9.87865C9.31606 10.4413 8.99999 11.2043 8.99999 12C8.99999 12.7956 9.31606 13.5587 9.87866 14.1213C10.4413 14.6839 11.2043 15 12 15Z" fill="#007AFF"/>
</svg>
