<svg width="48" height="48" viewBox="0 0 48 48" fill="none" xmlns="http://www.w3.org/2000/svg">
<circle cx="24" cy="24" r="24" fill="#EBEBEB"/>
<path d="M34.162 17.6559C33.3986 17.9936 32.589 18.2154 31.76 18.3139C32.6337 17.7914 33.2877 16.9689 33.6 15.9999C32.78 16.4879 31.881 16.8299 30.944 17.0149C30.3146 16.3415 29.4804 15.8949 28.5709 15.7445C27.6615 15.5941 26.7279 15.7484 25.9153 16.1834C25.1026 16.6183 24.4564 17.3096 24.0771 18.1497C23.6978 18.9898 23.6067 19.9317 23.818 20.8289C22.1551 20.7456 20.5283 20.3134 19.0433 19.5606C17.5582 18.8077 16.2481 17.751 15.198 16.4589C14.8263 17.0974 14.6309 17.8232 14.632 18.5619C14.632 20.0119 15.37 21.2929 16.492 22.0429C15.828 22.022 15.1786 21.8427 14.598 21.5199V21.5719C14.5982 22.5376 14.9324 23.4735 15.5438 24.221C16.1553 24.9684 17.0065 25.4814 17.953 25.6729C17.3366 25.84 16.6903 25.8646 16.063 25.7449C16.3299 26.5762 16.85 27.3031 17.5506 27.824C18.2512 28.3449 19.0971 28.6337 19.97 28.6499C19.1025 29.3313 18.1092 29.8349 17.0469 30.1321C15.9846 30.4293 14.8741 30.5142 13.779 30.3819C15.6907 31.6114 17.9161 32.264 20.189 32.2619C27.882 32.2619 32.089 25.8889 32.089 20.3619C32.089 20.1819 32.084 19.9999 32.076 19.8219C32.8949 19.2301 33.6016 18.4969 34.163 17.6569L34.162 17.6559Z" fill="#989898"/>
</svg>
