<svg width="48" height="48" viewBox="0 0 48 48" fill="none" xmlns="http://www.w3.org/2000/svg">
<circle cx="24" cy="24" r="24" fill="#989898"/>
<path d="M34.1623 17.6559C33.3989 17.9936 32.5893 18.2154 31.7603 18.3139C32.634 17.7914 33.288 16.9689 33.6003 15.9999C32.7803 16.4879 31.8813 16.8299 30.9443 17.0149C30.3149 16.3415 29.4807 15.8949 28.5713 15.7445C27.6618 15.5941 26.7282 15.7484 25.9156 16.1834C25.1029 16.6183 24.4567 17.3096 24.0774 18.1497C23.6981 18.9898 23.607 19.9317 23.8183 20.8289C22.1554 20.7456 20.5286 20.3134 19.0436 19.5606C17.5585 18.8077 16.2484 17.751 15.1983 16.4589C14.8266 17.0974 14.6313 17.8232 14.6323 18.5619C14.6323 20.0119 15.3703 21.2929 16.4923 22.0429C15.8283 22.022 15.1789 21.8427 14.5983 21.5199V21.5719C14.5985 22.5376 14.9327 23.4735 15.5441 24.221C16.1556 24.9684 17.0068 25.4814 17.9533 25.6729C17.3369 25.84 16.6906 25.8646 16.0633 25.7449C16.3302 26.5762 16.8503 27.3031 17.5509 27.824C18.2515 28.3449 19.0974 28.6337 19.9703 28.6499C19.1028 29.3313 18.1095 29.8349 17.0472 30.1321C15.9849 30.4293 14.8744 30.5142 13.7793 30.3819C15.691 31.6114 17.9164 32.264 20.1893 32.2619C27.8823 32.2619 32.0893 25.8889 32.0893 20.3619C32.0893 20.1819 32.0843 19.9999 32.0763 19.8219C32.8952 19.2301 33.6019 18.4969 34.1633 17.6569L34.1623 17.6559Z" fill="#5C5C5C"/>
</svg>
