<svg width="24" height="24" viewBox="0 0 24 24" fill="none" xmlns="http://www.w3.org/2000/svg">
<path d="M12 13.0002L18 22.0002H6.00002L12 13.0002ZM12 16.6002L9.74002 20.0002H14.26L12 16.6002ZM10.94 10.5602C10.7926 10.4229 10.6744 10.2573 10.5925 10.0733C10.5105 9.88928 10.4664 9.69065 10.4628 9.48925C10.4593 9.28784 10.4963 9.08778 10.5718 8.90101C10.6472 8.71423 10.7595 8.54456 10.9019 8.40213C11.0444 8.25969 11.214 8.1474 11.4008 8.07196C11.5876 7.99652 11.7877 7.95947 11.9891 7.96302C12.1905 7.96657 12.3891 8.01066 12.5731 8.09264C12.7571 8.17462 12.9227 8.29283 13.06 8.4402C13.325 8.72455 13.4692 9.10065 13.4624 9.48925C13.4555 9.87785 13.2981 10.2486 13.0233 10.5234C12.7484 10.7983 12.3777 10.9557 11.9891 10.9626C11.6005 10.9694 11.2244 10.8252 10.94 10.5602ZM5.28102 2.7832L6.69602 4.1982C5.28968 5.6047 4.49962 7.51223 4.49962 9.5012C4.49962 11.4902 5.28968 13.3977 6.69602 14.8042L5.28102 16.2192C4.39872 15.337 3.69883 14.2897 3.22132 13.137C2.74382 11.9843 2.49805 10.7489 2.49805 9.5012C2.49805 8.25353 2.74382 7.01808 3.22132 5.86539C3.69883 4.71271 4.39872 3.66538 5.28102 2.7832ZM18.717 2.7832C19.5993 3.66538 20.2992 4.71271 20.7767 5.86539C21.2542 7.01808 21.5 8.25353 21.5 9.5012C21.5 10.7489 21.2542 11.9843 20.7767 13.137C20.2992 14.2897 19.5993 15.337 18.717 16.2192L17.302 14.8042C18.7084 13.3977 19.4984 11.4902 19.4984 9.5012C19.4984 7.51223 18.7084 5.6047 17.302 4.1982L18.717 2.7832ZM8.11002 5.6112L9.52402 7.0252C9.19898 7.35021 8.94114 7.73607 8.76522 8.16073C8.58931 8.58539 8.49877 9.04055 8.49877 9.5002C8.49877 9.95986 8.58931 10.415 8.76522 10.8397C8.94114 11.2643 9.19898 11.6502 9.52402 11.9752L8.11002 13.3892C7.07862 12.3578 6.49919 10.9589 6.49919 9.5002C6.49919 8.04156 7.07862 6.64265 8.11002 5.6112ZM15.888 5.6112C16.9194 6.64265 17.4988 8.04156 17.4988 9.5002C17.4988 10.9589 16.9194 12.3578 15.888 13.3892L14.474 11.9752C14.7991 11.6502 15.0569 11.2643 15.2328 10.8397C15.4087 10.415 15.4993 9.95986 15.4993 9.5002C15.4993 9.04055 15.4087 8.58539 15.2328 8.16073C15.0569 7.73607 14.7991 7.35021 14.474 7.0252L15.888 5.6112Z" fill="#007AFF"/>
</svg>
